# 3ds Max Wavefront OBJ Exporter v0.97b - (c)2007 guruware
# File Created: 18.03.2021 10:42:26

mtllib SM_Shelf.mtl

#
# object SM_Shelf_01
#

v  -29.6586 0.0000 11.1394
v  -29.6586 0.0000 -10.4981
v  29.6625 0.0000 -10.4981
v  29.6625 0.0000 11.1394
v  -29.6586 1.9968 11.1394
v  29.6625 1.9968 11.1394
v  29.6625 1.9968 -10.4981
v  -29.6586 1.9968 -10.4981
v  -29.9531 0.2945 11.3013
v  29.9570 0.2945 11.3013
v  29.9570 1.7023 11.3013
v  -29.9531 1.7023 11.3013
v  29.9570 0.2945 -10.6599
v  29.9570 1.7023 -10.6599
v  -29.9531 0.2945 -10.6599
v  -29.9531 1.7023 -10.6599
v  -26.9474 -11.2109 -10.5458
v  -25.8172 -11.2109 -10.5458
v  -25.8172 -7.8400 -8.9987
v  -26.9474 -7.8400 -8.9987
v  -25.8172 -1.4309 -8.9987
v  -26.9474 -1.4309 -8.9987
v  -24.6869 -7.2068 -9.6444
v  -24.6869 -10.5778 -10.5458
v  -24.6869 -1.5389 -10.5458
v  -24.6869 -0.7978 -9.6444
v  -28.0776 -10.5778 -10.5458
v  -28.0776 -7.2068 -9.6444
v  -28.0776 -0.7978 -9.6444
v  -28.0776 -1.5389 -10.5458
v  -25.8172 0.0660 1.8494
v  -26.9474 0.0660 1.8494
v  -26.9474 -1.4309 -1.6464
v  -25.8172 -1.4309 -1.6464
v  -24.6869 0.0660 -10.5458
v  -24.6869 0.0660 -8.7963
v  -28.0776 0.0660 -8.7963
v  -28.0776 0.0660 -10.5458
v  -28.0776 -0.7978 -2.2922
v  -28.0776 0.0660 1.2037
v  -24.6869 0.0660 1.2037
v  -24.6869 -0.7978 -2.2922
v  25.5330 -11.2109 -10.5458
v  26.6633 -11.2109 -10.5458
v  26.6633 -7.8400 -8.9987
v  25.5330 -7.8400 -8.9987
v  26.6633 -1.4309 -8.9987
v  25.5330 -1.4309 -8.9987
v  27.7935 -7.2068 -9.6444
v  27.7935 -10.5778 -10.5458
v  27.7935 -1.5389 -10.5458
v  27.7935 -0.7978 -9.6444
v  24.4028 -10.5778 -10.5458
v  24.4028 -7.2068 -9.6444
v  24.4028 -0.7978 -9.6444
v  24.4028 -1.5389 -10.5458
v  26.6633 0.0660 1.8494
v  25.5330 0.0660 1.8494
v  25.5330 -1.4309 -1.6464
v  26.6633 -1.4309 -1.6464
v  27.7935 0.0660 -10.5458
v  27.7935 0.0660 -8.7963
v  24.4028 0.0660 -8.7963
v  24.4028 0.0660 -10.5458
v  24.4028 -0.7978 -2.2922
v  24.4028 0.0660 1.2037
v  27.7935 0.0660 1.2037
v  27.7935 -0.7978 -2.2922
# 68 vertices

vn -0.3002 -0.9054 0.3002
vn -0.3002 -0.9054 -0.3002
vn 0.3002 -0.9054 -0.3002
vn 0.3002 -0.9054 0.3002
vn -0.3002 0.9054 0.3002
vn 0.3002 0.9054 0.3002
vn 0.3002 0.9054 -0.3002
vn -0.3002 0.9054 -0.3002
vn -0.6507 -0.3914 0.6507
vn 0.6507 -0.3914 0.6507
vn 0.6507 0.3914 0.6507
vn -0.6507 0.3914 0.6507
vn 0.6507 -0.3914 -0.6507
vn 0.6507 0.3914 -0.6507
vn -0.6507 -0.3914 -0.6507
vn -0.6507 0.3914 -0.6507
vn -0.1475 -0.6339 0.7592
vn 0.1475 -0.6339 0.7592
vn 0.3876 -0.3203 0.8644
vn -0.3876 -0.3203 0.8644
vn 0.4798 -0.6805 0.5538
vn -0.4798 -0.6805 0.5538
vn 0.9174 -0.0759 0.3907
vn 0.4292 -0.3951 0.8122
vn 1.0000 0.0000 -0.0000
vn 0.9834 -0.1196 0.1367
vn -0.4292 -0.3951 0.8122
vn -0.9174 -0.0759 0.3907
vn -0.9834 -0.1196 0.1367
vn -1.0000 0.0000 -0.0000
vn 0.0782 -0.9704 0.2284
vn -0.0782 -0.9704 0.2284
vn -0.3010 -0.9448 0.1294
vn 0.3010 -0.9448 0.1294
vn -0.8606 -0.5089 0.0185
vn -0.1938 -0.9721 0.1320
vn 0.1938 -0.9721 0.1320
vn 0.8606 -0.5089 0.0185
# 38 vertex normals

vt 0.9951 0.0074 0.0000
vt 0.9951 0.9926 0.0000
vt 0.0049 0.9926 0.0000
vt 0.0049 0.0074 0.0000
vt 0.0000 0.1475 0.0000
vt 1.0000 0.1475 0.0000
vt 1.0000 0.8525 0.0000
vt 0.0000 0.8525 0.0000
vt 0.0049 0.9945 0.0000
vt 0.9951 0.9945 0.0000
vt 0.0074 0.9970 0.0000
vt 0.9926 0.9970 0.0000
vt 0.9926 0.0015 0.0000
vt 0.0074 0.0015 0.0000
vt 0.9951 0.0040 0.0000
vt 0.0049 0.0040 0.0000
vt 0.6667 1.0000 0.0000
vt 0.3333 1.0000 0.0000
vt 0.3333 0.0000 0.0000
vt 0.6667 0.0000 0.0000
vt 0.6667 0.5000 0.0000
vt 0.3333 0.5000 0.0000
vt 0.0000 0.0000 0.0000
vt 1.0000 0.0000 0.0000
vt 1.0000 0.5000 0.0000
vt 0.0000 0.5000 0.0000
vt 1.0000 1.0000 0.0000
vt 0.0000 1.0000 0.0000
# 28 texture coords

o SM_Shelf_01
g SM_Shelf_01
usemtl wire_108008136
s 1
f 1/1/1 2/2/2 3/3/3 4/4/4 
f 5/4/5 6/1/6 7/2/7 8/3/8 
f 9/5/9 10/6/10 11/7/11 12/8/12 
s 2
f 10/5/10 13/6/13 14/7/14 11/8/11 
s 1
f 13/5/13 15/6/15 16/7/16 14/8/14 
s 2
f 15/5/15 9/6/9 12/7/12 16/8/16 
s 4
f 5/9/5 12/8/12 11/7/11 6/10/6 
s 8
f 6/11/6 11/8/11 14/7/14 7/12/7 
s 4
f 7/9/7 14/8/14 16/7/16 8/10/8 
s 8
f 8/11/8 16/8/16 12/7/12 5/12/5 
s 4
f 1/13/1 9/6/9 15/5/15 2/14/2 
s 8
f 2/15/2 15/6/15 13/5/13 3/16/3 
s 4
f 3/13/3 13/6/13 10/5/10 4/14/4 
s 8
f 4/15/4 10/6/10 9/5/9 1/16/1 
s 2
f 17/17/17 18/18/18 19/19/19 20/20/20 
s 8
f 20/19/20 19/20/19 21/21/21 22/22/22 
s 16
f 23/23/23 24/24/24 25/25/25 26/26/26 
s 64
f 27/23/27 28/24/28 29/25/29 30/26/30 
s 8
f 31/17/31 32/18/32 33/22/33 34/21/34 
s 16
f 25/25/25 35/27/25 36/28/25 26/26/26 
s 64
f 29/25/29 37/27/30 38/28/30 30/26/30 
s off
f 37/28/30 29/26/29 39/26/35 40/28/36 
f 22/22/22 21/21/21 34/21/34 33/22/33 
f 26/25/26 36/27/25 41/27/37 42/25/38 
s 2
f 18/18/18 24/28/24 23/23/23 19/19/19 
f 20/20/20 28/24/28 27/27/27 17/17/17 
s 8
f 19/20/19 23/24/23 26/25/26 21/21/21 
f 22/22/22 29/26/29 28/23/28 20/19/20 
f 32/18/32 40/28/36 39/26/35 33/22/33 
f 34/21/34 42/25/38 41/27/37 31/17/31 
s off
f 21/21/21 26/25/26 42/25/38 34/21/34 
f 33/22/33 39/26/35 29/26/29 22/22/22 
s 2
f 43/17/17 44/18/18 45/19/19 46/20/20 
s 8
f 46/19/20 45/20/19 47/21/21 48/22/22 
s 16
f 49/23/23 50/24/24 51/25/25 52/26/26 
s 64
f 53/23/27 54/24/28 55/25/29 56/26/30 
s 8
f 57/17/31 58/18/32 59/22/33 60/21/34 
s 16
f 51/25/25 61/27/25 62/28/25 52/26/26 
s 64
f 55/25/29 63/27/30 64/28/30 56/26/30 
s off
f 63/28/30 55/26/29 65/26/35 66/28/36 
f 48/22/22 47/21/21 60/21/34 59/22/33 
f 52/25/26 62/27/25 67/27/37 68/25/38 
s 2
f 44/18/18 50/28/24 49/23/23 45/19/19 
f 46/20/20 54/24/28 53/27/27 43/17/17 
s 8
f 45/20/19 49/24/23 52/25/26 47/21/21 
f 48/22/22 55/26/29 54/23/28 46/19/20 
f 58/18/32 66/28/36 65/26/35 59/22/33 
f 60/21/34 68/25/38 67/27/37 57/17/31 
s off
f 47/21/21 52/25/26 68/25/38 60/21/34 
f 59/22/33 65/26/35 55/26/29 48/22/22 
# 50 polygons

