# 3ds Max Wavefront OBJ Exporter v0.97b - (c)2007 guruware
# File Created: 17.03.2021 17:26:31

mtllib SM_Window_Small_01.mtl

#
# object SM_Window_Small_01
#

v  -4.6940 17.8629 1.7354
v  -4.6940 17.8629 -1.7354
v  4.6940 17.8629 -1.7354
v  4.6940 17.8629 1.7354
v  -4.6940 123.8021 1.7354
v  4.6940 123.8021 1.7354
v  4.6940 123.8021 -1.7354
v  -4.6940 123.8021 -1.7354
v  5.5248 24.3086 1.7354
v  -3.8632 24.3086 1.7354
v  5.5248 24.3086 -1.7354
v  -3.8632 24.3086 -1.7354
v  -3.6484 64.9005 1.7354
v  5.5970 63.2703 1.7354
v  7.1304 71.9668 1.7354
v  -2.1150 73.5970 1.7354
v  47.9978 65.2599 1.7354
v  47.9978 65.2599 -1.7354
v  47.9978 74.0905 -1.7354
v  47.9978 74.0905 1.7354
v  5.5970 63.2703 -1.7354
v  -3.6484 64.9005 -1.7354
v  -2.1150 73.5970 -1.7354
v  7.1304 71.9668 -1.7354
v  -48.7015 65.0166 -1.7354
v  -48.7015 65.0166 1.7354
v  -48.7015 73.8472 1.7354
v  -48.7015 73.8472 -1.7354
v  4.9839 96.4300 1.7354
v  -4.3185 96.4362 1.7354
v  4.9839 96.4300 -1.7354
v  -4.3185 96.4362 -1.7354
v  26.4866 64.6300 -1.7354
v  26.4866 64.6300 1.7354
v  26.4941 73.3755 -1.7354
v  26.4941 73.3755 1.7354
v  -20.4305 64.2268 1.7354
v  -20.4305 64.2268 -1.7354
v  -20.4270 72.9833 1.7354
v  -20.4270 72.9833 -1.7354
v  -42.8191 64.5892 1.7354
v  -42.8191 64.5892 -1.7354
v  -42.8191 73.4198 1.7354
v  -42.8191 73.4198 -1.7354
v  4.4437 116.2104 1.7354
v  -4.9443 116.2104 1.7354
v  4.4437 116.2104 -1.7354
v  -4.9443 116.2104 -1.7354
v  6.3867 44.0527 1.7354
v  -2.9339 44.0547 1.7354
v  6.3867 44.0527 -1.7354
v  -2.9339 44.0547 -1.7354
v  -74.6415 -0.0023 -6.7301
v  -74.6415 21.3838 -6.7301
v  -55.5226 20.1989 -5.6964
v  -55.5226 1.1826 -5.6964
v  -9.5566 2.4996 -4.5476
v  -9.5566 18.8819 -4.5476
v  40.4873 19.1101 -4.7467
v  40.4873 2.2714 -4.7467
v  65.8729 1.7914 -5.1654
v  65.8729 19.5901 -5.1654
v  74.3499 19.8722 -5.4114
v  74.3499 1.5093 -5.4114
v  -74.6415 -0.0023 7.3902
v  -55.5226 1.1826 6.3565
v  -55.5226 20.1989 6.3565
v  -74.6415 21.3838 7.3902
v  -9.5566 2.4996 5.2077
v  40.4873 2.2714 5.4068
v  40.4873 19.1101 5.4068
v  -9.5566 18.8819 5.2077
v  65.8729 1.7914 5.8255
v  74.3499 1.5093 6.0715
v  74.3499 19.8721 6.0715
v  65.8729 19.5901 5.8255
v  46.3375 17.0983 3.1427
v  46.3375 17.0983 -5.0312
v  64.3671 17.0983 -5.0312
v  64.3671 17.0983 3.1427
v  46.3375 124.7357 3.1427
v  64.3671 124.7357 3.1427
v  64.3671 124.7357 -5.0312
v  46.3375 124.7357 -5.0312
v  62.1513 69.1868 3.1427
v  62.1513 88.8566 3.1427
v  46.3375 88.8566 3.1427
v  46.3375 69.1868 3.1427
v  62.1513 69.1868 -5.0312
v  62.1513 88.8566 -5.0312
v  46.3375 69.1868 -5.0312
v  46.3375 88.8566 -5.0312
v  -64.9003 17.0983 3.1427
v  -64.9003 17.0983 -5.0312
v  -46.8707 17.0983 -5.0312
v  -46.8707 17.0983 3.1427
v  -64.9003 124.7357 3.1427
v  -46.8707 124.7357 3.1427
v  -46.8707 124.7357 -5.0312
v  -64.9003 124.7357 -5.0312
v  -46.8707 35.9326 3.1427
v  -46.8707 55.6024 3.1427
v  -62.9012 55.6024 3.1427
v  -62.9012 35.9326 3.1427
v  -46.8707 35.9327 -5.0312
v  -46.8707 55.6024 -5.0312
v  -62.9012 35.9327 -5.0312
v  -62.9012 55.6024 -5.0312
v  74.3499 144.8836 -6.7301
v  74.3499 123.4976 -6.7301
v  59.7635 123.4484 -5.6964
v  59.7635 142.4646 -5.6964
v  19.2336 138.8894 -4.5476
v  19.2336 122.5072 -4.5476
v  -33.6625 120.9589 -4.7467
v  -33.6625 137.7976 -4.7467
v  -63.9902 138.0617 -5.1654
v  -63.9902 120.2630 -5.1654
v  -74.6415 119.9769 -5.4114
v  -74.6415 138.3397 -5.4114
v  74.3499 144.8836 7.3901
v  59.7635 142.4646 6.3565
v  59.7635 123.4484 6.3565
v  74.3499 123.4976 7.3902
v  19.2336 138.8894 5.2076
v  -33.6625 137.7976 5.4068
v  -33.6625 120.9589 5.4068
v  19.2336 122.5072 5.2076
v  -63.9902 138.0617 5.8255
v  -74.6415 138.3397 6.0715
v  -74.6415 119.9769 6.0715
v  -63.9902 120.2630 5.8255
v  46.3375 36.7680 3.1427
v  63.1504 36.7989 3.1427
v  63.1504 36.7989 -5.0312
v  46.3375 36.7680 -5.0312
v  -46.8707 88.0212 3.1427
v  -63.5130 88.0097 3.1427
v  -46.8707 88.0212 -5.0312
v  -63.5130 88.0097 -5.0312
# 140 vertices

vn -0.6121 -0.5464 0.5716
vn -0.6121 -0.5464 -0.5716
vn 0.5408 -0.6058 -0.5835
vn 0.5408 -0.6058 0.5835
vn -0.5681 0.5849 0.5789
vn 0.5865 0.5696 0.5758
vn 0.5865 0.5696 -0.5758
vn -0.5681 0.5849 -0.5789
vn 0.7133 -0.0543 0.6988
vn -0.6967 0.0541 0.7153
vn 0.7133 -0.0543 -0.6988
vn -0.6968 0.0541 -0.7152
vn -0.2873 -0.3099 0.9063
vn 0.3245 -0.2906 0.9002
vn 0.2757 0.3237 0.9051
vn -0.3106 0.2746 0.9100
vn 0.5774 0.5774 -0.5774
vn 0.5774 0.5774 0.5774
vn 0.5774 -0.5774 0.5774
vn 0.5774 -0.5774 -0.5774
vn 0.3245 -0.2906 -0.9002
vn -0.2873 -0.3099 -0.9063
vn -0.3106 0.2747 -0.9100
vn 0.2757 0.3237 -0.9051
vn -0.5982 -0.5510 -0.5818
vn -0.5982 -0.5510 0.5818
vn -0.5552 0.6027 0.5732
vn -0.5552 0.6027 -0.5732
vn 0.7001 0.0355 0.7131
vn -0.7123 -0.0403 0.7007
vn 0.7001 0.0355 -0.7131
vn -0.7123 -0.0403 -0.7007
vn 0.0375 -0.7015 -0.7117
vn 0.0375 -0.7015 0.7116
vn -0.0426 0.7107 -0.7022
vn -0.0426 0.7107 0.7022
vn 0.0097 -0.7141 0.7000
vn 0.0097 -0.7141 -0.7000
vn -0.0056 0.7002 0.7139
vn -0.0056 0.7002 -0.7140
vn -0.0358 -0.7132 0.7000
vn -0.0358 -0.7132 -0.7000
vn 0.0365 0.6993 0.7139
vn 0.0365 0.6993 -0.7139
vn 0.0117 -0.7032 -0.7109
vn 0.0117 -0.7032 0.7109
vn -0.0134 0.7111 -0.7029
vn -0.0134 0.7111 0.7029
vn 0.7010 -0.0018 0.7131
vn -0.7134 0.0004 0.7007
vn 0.7010 -0.0018 -0.7131
vn -0.7134 0.0004 -0.7007
vn 0.7153 -0.0008 0.6988
vn -0.6989 0.0039 0.7152
vn 0.7153 -0.0008 -0.6988
vn -0.6988 0.0039 -0.7153
vn -0.5314 -0.5928 -0.6051
vn -0.5314 0.5928 -0.6051
vn 0.0914 0.7069 -0.7014
vn 0.0914 -0.7069 -0.7014
vn 0.0244 -0.7091 -0.7047
vn 0.0244 0.7091 -0.7047
vn -0.0236 0.7079 -0.7060
vn -0.0236 -0.7079 -0.7060
vn -0.0524 -0.7072 -0.7050
vn -0.0524 0.7072 -0.7050
vn 0.5527 0.5859 -0.5927
vn 0.5527 -0.5859 -0.5927
vn -0.5314 -0.5928 0.6051
vn 0.0914 -0.7069 0.7014
vn 0.0914 0.7069 0.7014
vn -0.5314 0.5928 0.6051
vn 0.0244 -0.7091 0.7047
vn -0.0236 -0.7079 0.7060
vn -0.0236 0.7079 0.7060
vn 0.0244 0.7091 0.7047
vn -0.0524 -0.7072 0.7050
vn 0.5527 -0.5859 0.5927
vn 0.5527 0.5859 0.5927
vn -0.0524 0.7072 0.7050
vn -0.5774 -0.5774 0.5774
vn -0.5774 -0.5774 -0.5774
vn 0.5944 -0.5627 -0.5745
vn 0.5942 -0.5628 0.5746
vn -0.5774 0.5774 0.5774
vn 0.5943 0.5628 0.5745
vn 0.5943 0.5628 -0.5745
vn -0.5774 0.5774 -0.5774
vn 0.7040 0.0096 0.7102
vn 0.7006 -0.0191 0.7133
vn -0.7071 0.0000 0.7071
vn -0.7071 -0.0000 0.7071
vn 0.7040 0.0096 -0.7102
vn 0.7006 -0.0191 -0.7133
vn -0.7071 0.0000 -0.7071
vn -0.6062 -0.5520 0.5726
vn -0.6062 -0.5520 -0.5726
vn -0.5878 0.5685 0.5756
vn -0.5878 0.5685 -0.5756
vn 0.7071 0.0000 0.7071
vn 0.7071 -0.0000 0.7071
vn -0.7052 -0.0059 0.7090
vn -0.6955 0.0325 0.7178
vn 0.7071 -0.0000 -0.7071
vn -0.6955 0.0325 -0.7178
vn -0.7052 -0.0059 -0.7090
vn 0.4931 0.6234 -0.6068
vn 0.5406 -0.5694 -0.6194
vn -0.0566 -0.7143 -0.6975
vn -0.1713 0.6942 -0.6991
vn -0.0614 0.7036 -0.7080
vn 0.0049 -0.7134 -0.7008
vn 0.0331 -0.7096 -0.7038
vn 0.0074 0.7056 -0.7086
vn 0.0395 0.7065 -0.7066
vn 0.0454 -0.7080 -0.7047
vn -0.5576 -0.5844 -0.5896
vn -0.5578 0.5841 -0.5896
vn 0.4931 0.6234 0.6068
vn -0.1713 0.6942 0.6991
vn -0.0566 -0.7143 0.6975
vn 0.5406 -0.5694 0.6194
vn -0.0614 0.7036 0.7080
vn 0.0074 0.7056 0.7086
vn 0.0331 -0.7096 0.7038
vn 0.0049 -0.7134 0.7008
vn 0.0395 0.7065 0.7066
vn -0.5578 0.5841 0.5896
vn -0.5576 -0.5844 0.5896
vn 0.0454 -0.7080 0.7047
vn 0.7035 0.0288 0.7101
vn 0.7034 0.0288 -0.7102
vn -0.7050 -0.0176 0.7090
vn 0.7071 0.0000 -0.7071
vn -0.7050 -0.0176 -0.7090
# 135 vertex normals

vt 0.3274 0.0715 0.0000
vt 0.3274 0.0950 0.0000
vt 0.2948 0.0950 0.0000
vt 0.2948 0.0715 0.0000
vt 0.6464 0.4120 0.0000
vt 0.6154 0.4017 0.0000
vt 0.6227 0.3794 0.0000
vt 0.6537 0.3897 0.0000
vt 0.4622 0.4269 0.0000
vt 0.4949 0.4267 0.0000
vt 0.4979 0.4521 0.0000
vt 0.4652 0.4522 0.0000
vt 0.0208 0.5283 0.0000
vt 0.0005 0.5165 0.0000
vt 0.0133 0.4944 0.0000
vt 0.0336 0.5062 0.0000
vt 0.4178 0.4267 0.0000
vt 0.4505 0.4269 0.0000
vt 0.4475 0.4522 0.0000
vt 0.4148 0.4521 0.0000
vt 0.2808 0.3049 0.0000
vt 0.2965 0.3223 0.0000
vt 0.2775 0.3395 0.0000
vt 0.2618 0.3221 0.0000
vt 0.6094 0.8948 0.0000
vt 0.6415 0.8884 0.0000
vt 0.6468 0.9227 0.0000
vt 0.6147 0.9291 0.0000
vt 0.1860 0.2464 0.0000
vt 0.1659 0.2343 0.0000
vt 0.1839 0.2045 0.0000
vt 0.2040 0.2167 0.0000
vt 0.8073 0.9544 0.0000
vt 0.8395 0.9607 0.0000
vt 0.8344 0.9949 0.0000
vt 0.8022 0.9887 0.0000
vt 0.0264 0.5341 0.0000
vt 0.0421 0.5516 0.0000
vt 0.0162 0.5748 0.0000
vt 0.0005 0.5574 0.0000
vt 0.5295 0.3973 0.0000
vt 0.5617 0.3912 0.0000
vt 0.5533 0.4875 0.0000
vt 0.5210 0.4872 0.0000
vt 0.2781 0.0951 0.0000
vt 0.2581 0.0829 0.0000
vt 0.3087 0.0005 0.0000
vt 0.3287 0.0128 0.0000
vt 0.5282 0.7666 0.0000
vt 0.5604 0.7727 0.0000
vt 0.5689 0.8626 0.0000
vt 0.5366 0.8629 0.0000
vt 0.8418 0.4522 0.0000
vt 0.8343 0.4745 0.0000
vt 0.7487 0.4459 0.0000
vt 0.7561 0.4236 0.0000
vt 0.1108 0.3734 0.0000
vt 0.0906 0.3616 0.0000
vt 0.1276 0.2987 0.0000
vt 0.1477 0.3107 0.0000
vt 0.1837 0.5535 0.0000
vt 0.1782 0.5878 0.0000
vt 0.1108 0.5931 0.0000
vt 0.1110 0.5586 0.0000
vt 0.2429 0.1528 0.0000
vt 0.2228 0.1405 0.0000
vt 0.7142 0.8938 0.0000
vt 0.7142 0.9282 0.0000
vt 0.1430 0.4293 0.0000
vt 0.1588 0.4467 0.0000
vt 0.1153 0.4858 0.0000
vt 0.0996 0.4684 0.0000
vt 0.7611 0.9318 0.0000
vt 0.7663 0.9660 0.0000
vt 0.7026 0.9635 0.0000
vt 0.7027 0.9290 0.0000
vt 0.9023 0.4725 0.0000
vt 0.8948 0.4947 0.0000
vt 0.8979 0.9577 0.0000
vt 0.8980 0.9922 0.0000
vt 0.0573 0.5379 0.0000
vt 0.0417 0.5204 0.0000
vt 0.6247 0.9651 0.0000
vt 0.6043 0.9667 0.0000
vt 0.6043 0.9320 0.0000
vt 0.6248 0.9303 0.0000
vt 0.9761 0.4973 0.0000
vt 0.9956 0.5039 0.0000
vt 0.9881 0.5261 0.0000
vt 0.9686 0.5196 0.0000
vt 0.9758 0.9589 0.0000
vt 0.9963 0.9604 0.0000
vt 0.9964 0.9952 0.0000
vt 0.9759 0.9936 0.0000
vt 0.5507 0.5654 0.0000
vt 0.5513 0.5953 0.0000
vt 0.5186 0.5950 0.0000
vt 0.5180 0.5651 0.0000
vt 0.5943 0.3700 0.0000
vt 0.5870 0.3923 0.0000
vt 0.5719 0.9405 0.0000
vt 0.5713 0.9704 0.0000
vt 0.5386 0.9707 0.0000
vt 0.5392 0.9408 0.0000
vt 0.6748 0.4214 0.0000
vt 0.6821 0.3991 0.0000
vt 0.5012 0.5298 0.0000
vt 0.4988 0.6056 0.0000
vt 0.4667 0.6121 0.0000
vt 0.4688 0.5300 0.0000
vt 0.0524 0.4270 0.0000
vt 0.0727 0.4388 0.0000
vt 0.4439 0.5300 0.0000
vt 0.4460 0.6121 0.0000
vt 0.4139 0.6056 0.0000
vt 0.4115 0.5298 0.0000
vt 0.2198 0.3917 0.0000
vt 0.2040 0.3743 0.0000
vt 0.0360 0.5956 0.0000
vt 0.0361 0.5609 0.0000
vt 0.7890 0.8963 0.0000
vt 0.7890 0.9311 0.0000
vt 0.5203 0.3455 0.0000
vt 0.5130 0.3678 0.0000
vt 0.9964 0.1730 0.0000
vt 0.9964 0.2573 0.0000
vt 0.9295 0.2526 0.0000
vt 0.9295 0.1777 0.0000
vt 0.7694 0.1829 0.0000
vt 0.7694 0.2474 0.0000
vt 0.5953 0.2483 0.0000
vt 0.5953 0.1820 0.0000
vt 0.5070 0.1801 0.0000
vt 0.5070 0.2502 0.0000
vt 0.4774 0.2513 0.0000
vt 0.4774 0.1790 0.0000
vt 0.0056 0.8072 0.0000
vt 0.0725 0.8119 0.0000
vt 0.0725 0.8868 0.0000
vt 0.0056 0.8915 0.0000
vt 0.2325 0.8171 0.0000
vt 0.4066 0.8162 0.0000
vt 0.4066 0.8825 0.0000
vt 0.2325 0.8816 0.0000
vt 0.4950 0.8143 0.0000
vt 0.5245 0.8132 0.0000
vt 0.5245 0.8855 0.0000
vt 0.4950 0.8844 0.0000
vt 0.0056 0.7007 0.0000
vt 0.0722 0.7077 0.0000
vt 0.0722 0.7892 0.0000
vt 0.0056 0.7962 0.0000
vt 0.2322 0.7154 0.0000
vt 0.4063 0.7141 0.0000
vt 0.4063 0.7828 0.0000
vt 0.2322 0.7814 0.0000
vt 0.4947 0.7113 0.0000
vt 0.5242 0.7096 0.0000
vt 0.5242 0.7873 0.0000
vt 0.4947 0.7856 0.0000
vt 0.2796 0.5180 0.0000
vt 0.3519 0.5180 0.0000
vt 0.3519 0.5957 0.0000
vt 0.2796 0.5957 0.0000
vt 0.4774 0.2682 0.0000
vt 0.5069 0.2698 0.0000
vt 0.5069 0.3442 0.0000
vt 0.4774 0.3458 0.0000
vt 0.5953 0.2727 0.0000
vt 0.7694 0.2740 0.0000
vt 0.7694 0.3400 0.0000
vt 0.5953 0.3413 0.0000
vt 0.9294 0.2663 0.0000
vt 0.9960 0.2593 0.0000
vt 0.9960 0.3547 0.0000
vt 0.9294 0.3478 0.0000
vt 0.2187 0.1984 0.0000
vt 0.3029 0.1984 0.0000
vt 0.3029 0.2939 0.0000
vt 0.2187 0.2939 0.0000
vt 0.4082 0.4368 0.0000
vt 0.4082 0.4921 0.0000
vt 0.3455 0.4921 0.0000
vt 0.3455 0.4368 0.0000
vt 0.2694 0.1121 0.0000
vt 0.3321 0.1121 0.0000
vt 0.3321 0.1674 0.0000
vt 0.2694 0.1674 0.0000
vt 0.7818 0.6725 0.0000
vt 0.7821 0.7500 0.0000
vt 0.7271 0.7502 0.0000
vt 0.7268 0.6727 0.0000
vt 0.9335 0.7183 0.0000
vt 0.9335 0.7958 0.0000
vt 0.8783 0.7958 0.0000
vt 0.8783 0.7183 0.0000
vt 0.8656 0.6981 0.0000
vt 0.8654 0.7756 0.0000
vt 0.8104 0.7754 0.0000
vt 0.8106 0.6979 0.0000
vt 0.4617 0.2057 0.0000
vt 0.4617 0.2832 0.0000
vt 0.4064 0.2832 0.0000
vt 0.4064 0.2057 0.0000
vt 0.3423 0.4521 0.0000
vt 0.3423 0.5073 0.0000
vt 0.2796 0.5073 0.0000
vt 0.2796 0.4521 0.0000
vt 0.1172 0.4876 0.0000
vt 0.1799 0.4876 0.0000
vt 0.1799 0.5429 0.0000
vt 0.1172 0.5429 0.0000
vt 0.6368 0.4907 0.0000
vt 0.6370 0.5682 0.0000
vt 0.5812 0.5684 0.0000
vt 0.5810 0.4909 0.0000
vt 0.3957 0.0747 0.0000
vt 0.3957 0.1522 0.0000
vt 0.3404 0.1522 0.0000
vt 0.3404 0.0747 0.0000
vt 0.7068 0.5163 0.0000
vt 0.7066 0.5938 0.0000
vt 0.6508 0.5936 0.0000
vt 0.6510 0.5161 0.0000
vt 0.9995 0.6027 0.0000
vt 0.9995 0.6802 0.0000
vt 0.9442 0.6802 0.0000
vt 0.9442 0.6027 0.0000
vt 0.9962 0.0042 0.0000
vt 0.9914 0.0884 0.0000
vt 0.9402 0.0856 0.0000
vt 0.9445 0.0108 0.0000
vt 0.8027 0.0169 0.0000
vt 0.7991 0.0813 0.0000
vt 0.6150 0.0770 0.0000
vt 0.6188 0.0107 0.0000
vt 0.5134 0.0037 0.0000
vt 0.5095 0.0737 0.0000
vt 0.4724 0.0727 0.0000
vt 0.4765 0.0005 0.0000
vt 0.0056 0.9074 0.0000
vt 0.0573 0.9140 0.0000
vt 0.0615 0.9888 0.0000
vt 0.0104 0.9915 0.0000
vt 0.1990 0.9200 0.0000
vt 0.3830 0.9139 0.0000
vt 0.3868 0.9801 0.0000
vt 0.2027 0.9844 0.0000
vt 0.4883 0.9068 0.0000
vt 0.5253 0.9036 0.0000
vt 0.5294 0.9759 0.0000
vt 0.4923 0.9768 0.0000
vt 0.4774 0.0817 0.0000
vt 0.5291 0.0887 0.0000
vt 0.5291 0.1702 0.0000
vt 0.4774 0.1772 0.0000
vt 0.6708 0.0964 0.0000
vt 0.8548 0.0951 0.0000
vt 0.8548 0.1638 0.0000
vt 0.6708 0.1624 0.0000
vt 0.9603 0.0923 0.0000
vt 0.9974 0.0906 0.0000
vt 0.9974 0.1682 0.0000
vt 0.9603 0.1666 0.0000
vt 0.1984 0.5180 0.0000
vt 0.2707 0.5180 0.0000
vt 0.2707 0.5957 0.0000
vt 0.1984 0.5957 0.0000
vt 0.0106 0.6183 0.0000
vt 0.0477 0.6199 0.0000
vt 0.0477 0.6943 0.0000
vt 0.0106 0.6959 0.0000
vt 0.1533 0.6228 0.0000
vt 0.3374 0.6241 0.0000
vt 0.3374 0.6901 0.0000
vt 0.1533 0.6914 0.0000
vt 0.4784 0.6163 0.0000
vt 0.5292 0.6094 0.0000
vt 0.5292 0.7048 0.0000
vt 0.4784 0.6978 0.0000
vt 0.1933 0.4166 0.0000
vt 0.2776 0.4166 0.0000
vt 0.2776 0.5120 0.0000
vt 0.1933 0.5120 0.0000
vt 0.7903 0.8913 0.0000
vt 0.7276 0.8915 0.0000
vt 0.7263 0.5450 0.0000
vt 0.7261 0.4675 0.0000
vt 0.7888 0.4673 0.0000
vt 0.7848 0.5449 0.0000
vt 0.9335 0.9374 0.0000
vt 0.8783 0.9374 0.0000
vt 0.8783 0.5907 0.0000
vt 0.8783 0.5130 0.0000
vt 0.9335 0.5130 0.0000
vt 0.9335 0.5907 0.0000
vt 0.8649 0.9169 0.0000
vt 0.8022 0.9167 0.0000
vt 0.8076 0.5703 0.0000
vt 0.8037 0.4927 0.0000
vt 0.8664 0.4929 0.0000
vt 0.8661 0.5704 0.0000
vt 0.4617 0.4245 0.0000
vt 0.4064 0.4245 0.0000
vt 0.4064 0.0780 0.0000
vt 0.4064 0.0005 0.0000
vt 0.4617 0.0005 0.0000
vt 0.4617 0.0780 0.0000
vt 0.6374 0.6959 0.0000
vt 0.6378 0.8406 0.0000
vt 0.5751 0.8408 0.0000
vt 0.5795 0.6961 0.0000
vt 0.5738 0.4167 0.0000
vt 0.6366 0.4166 0.0000
vt 0.3957 0.2799 0.0000
vt 0.3957 0.4245 0.0000
vt 0.3404 0.4245 0.0000
vt 0.3404 0.2799 0.0000
vt 0.3404 0.0005 0.0000
vt 0.3957 0.0005 0.0000
vt 0.7083 0.7214 0.0000
vt 0.7127 0.8661 0.0000
vt 0.6499 0.8659 0.0000
vt 0.6504 0.7213 0.0000
vt 0.6512 0.4419 0.0000
vt 0.7140 0.4421 0.0000
vt 0.9995 0.8079 0.0000
vt 0.9995 0.9526 0.0000
vt 0.9442 0.9526 0.0000
vt 0.9442 0.8079 0.0000
vt 0.9442 0.5282 0.0000
vt 0.9995 0.5282 0.0000
# 332 texture coords

o SM_Window_Small_01
g SM_Window_Small_01
usemtl wire_214228153
s 1
f 1/1/1 2/2/2 3/3/3 4/4/4 
f 5/5/5 6/6/6 7/7/7 8/8/8 
s 2
f 1/9/1 4/10/4 9/11/9 10/12/10 
s 4
f 4/13/4 3/14/3 11/15/11 9/16/9 
s 2
f 3/17/3 2/18/2 12/19/12 11/20/11 
s 4
f 2/21/2 1/22/1 10/23/10 12/24/12 
s 2
f 13/25/13 14/26/14 15/27/15 16/28/16 
s 1
f 17/29/17 18/30/18 19/31/19 20/32/20 
s 2
f 21/33/21 22/34/22 23/35/23 24/36/24 
s 1
f 25/37/25 26/38/26 27/39/27 28/40/28 
s 2
f 16/41/16 15/42/15 29/43/29 30/44/30 
s 4
f 15/45/15 24/46/24 31/47/31 29/48/29 
s 2
f 24/49/24 23/50/23 32/51/32 31/52/31 
s 4
f 23/53/23 16/54/16 30/55/30 32/56/32 
s 8
f 14/57/14 21/58/21 33/59/33 34/60/34 
s 2
f 21/61/21 24/62/24 35/63/35 33/64/33 
s 8
f 24/46/24 15/45/15 36/65/36 35/66/35 
s 2
f 15/27/15 14/26/14 34/67/34 36/68/36 
s 8
f 22/69/22 13/70/13 37/71/37 38/72/38 
s 2
f 13/73/13 16/74/16 39/75/39 37/76/37 
s 8
f 16/54/16 23/53/23 40/77/40 39/78/39 
s 2
f 23/35/23 22/34/22 38/79/38 40/80/40 
s 8
f 41/81/41 26/38/26 25/37/25 42/82/42 
s 2
f 43/83/43 27/84/27 26/85/26 41/86/41 
s 8
f 44/87/44 28/88/28 27/89/27 43/90/43 
s 2
f 42/91/42 25/92/25 28/93/28 44/94/44 
s 1
f 18/30/45 18/30/18 17/29/17 17/29/46 
f 19/31/47 19/31/19 18/30/18 18/30/45 
f 20/32/48 20/32/20 19/31/19 19/31/47 
f 17/29/46 17/29/17 20/32/20 20/32/48 
s 2
f 45/95/49 6/96/6 5/97/5 46/98/50 
s 4
f 47/99/51 7/7/7 6/6/6 45/100/49 
s 2
f 48/101/52 8/102/8 7/103/7 47/104/51 
s 4
f 46/105/50 5/5/5 8/8/8 48/106/52 
s 2
f 49/107/53 14/108/14 13/109/13 50/110/54 
s 4
f 51/111/55 21/58/21 14/57/14 49/112/53 
s 2
f 52/113/56 22/114/22 21/115/21 51/116/55 
s 4
f 50/117/54 13/70/13 22/69/22 52/118/56 
s 8
f 37/71/37 41/81/41 42/82/42 38/72/38 
s 2
f 39/75/39 43/83/43 41/86/41 37/76/37 
s 8
f 40/77/40 44/87/44 43/90/43 39/78/39 
s 2
f 38/79/38 42/91/42 44/94/44 40/80/40 
s 8
f 33/59/33 18/30/45 17/29/46 34/60/34 
s 2
f 35/63/35 19/119/47 18/120/45 33/64/33 
s 8
f 36/65/36 20/32/48 19/31/47 35/66/35 
s 2
f 34/67/34 17/121/46 20/122/48 36/68/36 
f 29/43/29 45/95/49 46/98/50 30/44/30 
s 4
f 31/123/31 47/99/51 45/100/49 29/124/29 
s 2
f 32/51/32 48/101/52 47/104/51 31/52/31 
s 4
f 30/55/30 46/105/50 48/106/52 32/56/32 
s 2
f 9/11/9 49/107/53 50/110/54 10/12/10 
s 4
f 11/15/11 51/111/55 49/112/53 9/16/9 
s 2
f 12/19/12 52/113/56 51/116/55 11/20/11 
s 4
f 10/23/10 50/117/54 52/118/56 12/24/12 
s 1
f 53/125/57 54/126/58 55/127/59 56/128/60 
f 57/129/61 58/130/62 59/131/63 60/132/64 
f 61/133/65 62/134/66 63/135/67 64/136/68 
f 65/137/69 66/138/70 67/139/71 68/140/72 
f 69/141/73 70/142/74 71/143/75 72/144/76 
f 73/145/77 74/146/78 75/147/79 76/148/80 
s 2
f 53/149/57 56/150/60 66/151/70 65/152/69 
f 57/153/61 60/154/64 70/155/74 69/156/73 
f 61/157/65 64/158/68 74/159/78 73/160/77 
s 4
f 64/161/68 63/162/67 75/163/79 74/164/78 
s 2
f 63/165/67 62/166/66 76/167/80 75/168/79 
f 59/169/63 58/170/62 72/171/76 71/172/75 
f 55/173/59 54/174/58 68/175/72 67/176/71 
s 4
f 54/177/58 53/178/57 65/179/69 68/180/72 
s 1
f 59/131/63 62/134/66 61/133/65 60/132/64 
f 70/142/74 73/145/77 76/148/80 71/143/75 
s 2
f 60/154/64 61/157/65 73/160/77 70/155/74 
f 62/166/66 59/169/63 71/172/75 76/167/80 
s 1
f 55/127/59 58/130/62 57/129/61 56/128/60 
f 66/138/70 69/141/73 72/144/76 67/139/71 
s 2
f 56/150/60 57/153/61 69/156/73 66/151/70 
f 58/170/62 55/173/59 67/176/71 72/171/76 
s 1
f 77/181/81 78/182/82 79/183/83 80/184/84 
f 81/185/85 82/186/86 83/187/87 84/188/88 
s 2
f 85/189/89 86/190/90 87/191/91 88/192/92 
s 4
f 89/193/93 90/194/94 86/195/90 85/196/89 
s 2
f 91/197/95 92/198/95 90/199/94 89/200/93 
s 4
f 88/201/92 87/202/91 92/203/95 91/204/95 
s 1
f 93/205/96 94/206/97 95/207/20 96/208/19 
f 97/209/98 98/210/18 99/211/17 100/212/99 
s 2
f 101/213/100 102/214/101 103/215/102 104/216/103 
s 4
f 105/217/104 106/218/104 102/219/101 101/220/100 
s 2
f 107/221/105 108/222/106 106/223/104 105/224/104 
s 4
f 104/225/103 103/226/102 108/227/106 107/228/105 
s 1
f 109/229/107 110/230/108 111/231/109 112/232/110 
f 113/233/111 114/234/112 115/235/113 116/236/114 
f 117/237/115 118/238/116 119/239/117 120/240/118 
f 121/241/119 122/242/120 123/243/121 124/244/122 
f 125/245/123 126/246/124 127/247/125 128/248/126 
f 129/249/127 130/250/128 131/251/129 132/252/130 
s 2
f 109/253/107 112/254/110 122/255/120 121/256/119 
f 113/257/111 116/258/114 126/259/124 125/260/123 
f 117/261/115 120/262/118 130/263/128 129/264/127 
s 4
f 120/265/118 119/266/117 131/267/129 130/268/128 
s 2
f 119/269/117 118/270/116 132/271/130 131/272/129 
f 115/273/113 114/274/112 128/275/126 127/276/125 
f 111/277/109 110/278/108 124/279/122 123/280/121 
s 4
f 110/281/108 109/282/107 121/283/119 124/284/122 
s 1
f 115/235/113 118/238/116 117/237/115 116/236/114 
f 126/246/124 129/249/127 132/252/130 127/247/125 
s 2
f 116/258/114 117/261/115 129/264/127 126/259/124 
f 118/270/116 115/273/113 127/276/125 132/271/130 
s 1
f 111/231/109 114/234/112 113/233/111 112/232/110 
f 122/242/120 125/245/123 128/248/126 123/243/121 
s 2
f 112/254/110 113/257/111 125/260/123 122/255/120 
f 114/274/112 111/277/109 123/280/121 128/275/126 
f 86/190/90 82/285/86 81/286/85 87/191/91 
f 133/287/92 77/288/81 80/289/84 134/290/131 
s 4
f 90/194/94 83/291/87 82/292/86 86/195/90 
f 134/293/131 80/294/84 79/295/83 135/296/132 
s 2
f 92/198/95 84/297/88 83/298/87 90/199/94 
f 135/299/132 79/300/83 78/301/82 136/302/95 
s 4
f 87/202/91 81/303/85 84/304/88 92/203/95 
f 136/305/95 78/306/82 77/307/81 133/308/92 
s 2
f 137/309/101 98/310/18 97/311/98 138/312/133 
f 104/216/103 93/313/96 96/314/19 101/213/100 
s 4
f 139/315/134 99/316/17 98/317/18 137/318/101 
f 101/220/100 96/319/19 95/320/20 105/217/104 
s 2
f 140/321/135 100/322/99 99/323/17 139/324/134 
f 105/224/104 95/325/20 94/326/97 107/221/105 
s 4
f 138/327/133 97/328/98 100/329/99 140/330/135 
f 107/228/105 94/331/97 93/332/96 104/225/103 
s 2
f 88/192/92 133/287/92 134/290/131 85/189/89 
s 4
f 85/196/89 134/293/131 135/296/132 89/193/93 
s 2
f 89/200/93 135/299/132 136/302/95 91/197/95 
s 4
f 91/204/95 136/305/95 133/308/92 88/201/92 
s 2
f 102/214/101 137/309/101 138/312/133 103/215/102 
s 4
f 106/218/104 139/315/134 137/318/101 102/219/101 
s 2
f 108/222/106 140/321/135 139/324/134 106/223/104 
s 4
f 103/226/102 138/327/133 140/330/135 108/227/106 
# 134 polygons

